<svg width="38" height="39" viewBox="0 0 38 39" fill="none" xmlns="http://www.w3.org/2000/svg">
<g clip-path="url(#clip0_584_16)">
<path fill-rule="evenodd" clip-rule="evenodd" d="M28.5 4.875C29.7598 4.875 30.968 5.38861 31.8588 6.30285C32.7496 7.21709 33.25 8.45707 33.25 9.75V29.25C33.25 30.5429 32.7496 31.7829 31.8588 32.6971C30.968 33.6114 29.7598 34.125 28.5 34.125H9.5C8.24022 34.125 7.03204 33.6114 6.14124 32.6971C5.25045 31.7829 4.75 30.5429 4.75 29.25V9.75C4.75 8.45707 5.25045 7.21709 6.14124 6.30285C7.03204 5.38861 8.24022 4.875 9.5 4.875H28.5ZM12.6667 16.25C12.2467 16.25 11.844 16.4212 11.5471 16.726C11.2501 17.0307 11.0833 17.444 11.0833 17.875V26C11.0833 26.431 11.2501 26.8443 11.5471 27.149C11.844 27.4538 12.2467 27.625 12.6667 27.625C13.0866 27.625 13.4893 27.4538 13.7863 27.149C14.0832 26.8443 14.25 26.431 14.25 26V17.875C14.25 17.444 14.0832 17.0307 13.7863 16.726C13.4893 16.4212 13.0866 16.25 12.6667 16.25ZM17.4167 14.625C16.9967 14.625 16.594 14.7962 16.2971 15.101C16.0001 15.4057 15.8333 15.819 15.8333 16.25V26C15.8333 26.431 16.0001 26.8443 16.2971 27.149C16.594 27.4538 16.9967 27.625 17.4167 27.625C17.8366 27.625 18.2393 27.4538 18.5363 27.149C18.8332 26.8443 19 26.431 19 26V20.0525C19.4829 19.4935 20.2983 18.837 21.2056 18.4389C21.7328 18.2081 22.5261 18.1139 23.0771 18.2926C23.2599 18.3402 23.4227 18.4474 23.541 18.5981C23.6233 18.7119 23.75 18.9654 23.75 19.5V26C23.75 26.431 23.9168 26.8443 24.2137 27.149C24.5107 27.4538 24.9134 27.625 25.3333 27.625C25.7533 27.625 26.156 27.4538 26.4529 27.149C26.7499 26.8443 26.9167 26.431 26.9167 26V19.5C26.9167 18.4112 26.6475 17.4427 26.087 16.666C25.5712 15.9617 24.8494 15.4452 24.0271 15.1921C22.5989 14.7322 21.0172 14.9874 19.9611 15.4521C19.623 15.6014 19.2936 15.7707 18.9747 15.9591C18.9083 15.5847 18.716 15.2461 18.4313 15.0023C18.1465 14.7585 17.7875 14.6249 17.4167 14.625ZM12.6667 11.375C12.2467 11.375 11.844 11.5462 11.5471 11.851C11.2501 12.1557 11.0833 12.569 11.0833 13C11.0833 13.431 11.2501 13.8443 11.5471 14.149C11.844 14.4538 12.2467 14.625 12.6667 14.625C13.0866 14.625 13.4893 14.4538 13.7863 14.149C14.0832 13.8443 14.25 13.431 14.25 13C14.25 12.569 14.0832 12.1557 13.7863 11.851C13.4893 11.5462 13.0866 11.375 12.6667 11.375Z" fill="url(#paint0_linear_584_16)"/>
</g>
<defs>
<linearGradient id="paint0_linear_584_16" x1="41.403" y1="13.097" x2="18.4713" y2="33.5316" gradientUnits="userSpaceOnUse">
<stop stop-color="#8F00FF"/>
<stop offset="1" stop-color="#FF008A"/>
</linearGradient>
<clipPath id="clip0_584_16">
<rect width="38" height="39" fill="white"/>
</clipPath>
</defs>
</svg>
